<svg width="20" height="21" viewBox="0 0 20 21" fill="none" xmlns="http://www.w3.org/2000/svg">
<g clip-path="url(#clip0_294_211)">
<rect y="0.5" width="20" height="20" rx="3" fill="#181819" fill-opacity="0.37"/>
<path d="M13.2916 7.21371C13.0878 7.00995 12.7587 7.00995 12.5549 7.21371L10 9.76336L7.44517 7.20849C7.2414 7.00472 6.91225 7.00472 6.70849 7.20849C6.50472 7.41225 6.50472 7.7414 6.70849 7.94517L9.26336 10.5L6.70849 13.0549C6.50472 13.2587 6.50472 13.5878 6.70849 13.7916C6.91225 13.9954 7.2414 13.9954 7.44517 13.7916L10 11.2367L12.5549 13.7916C12.7587 13.9954 13.0878 13.9954 13.2916 13.7916C13.4954 13.5878 13.4954 13.2587 13.2916 13.0549L10.7367 10.5L13.2916 7.94517C13.4901 7.74663 13.4901 7.41225 13.2916 7.21371Z" fill="#BEC7CC"/>
</g>
<defs>
<clipPath id="clip0_294_211">
<rect y="0.5" width="20" height="20" rx="3" fill="white"/>
</clipPath>
</defs>
</svg>
