<svg width="8" height="7" viewBox="0 0 8 7" fill="none" xmlns="http://www.w3.org/2000/svg">
<path d="M7.29159 0.213711C7.08783 0.00994817 6.75867 0.00994817 6.55491 0.213711L4.00004 2.76336L1.44517 0.208486C1.2414 0.00472336 0.912249 0.00472336 0.708486 0.208486C0.504723 0.412249 0.504723 0.741404 0.708486 0.945167L3.26336 3.50004L0.708486 6.05491C0.504723 6.25867 0.504723 6.58783 0.708486 6.79159C0.912249 6.99535 1.2414 6.99535 1.44517 6.79159L4.00004 4.23672L6.55491 6.79159C6.75867 6.99535 7.08783 6.99535 7.29159 6.79159C7.49535 6.58783 7.49535 6.25867 7.29159 6.05491L4.73672 3.50004L7.29159 0.945167C7.49013 0.746629 7.49013 0.412249 7.29159 0.213711Z" fill="#BEC7CC"/>
</svg>
