<svg width="10" height="9" viewBox="0 0 10 9" fill="none" xmlns="http://www.w3.org/2000/svg">
<path d="M5 6.51094C4.925 6.51094 4.85469 6.49912 4.78906 6.4755C4.72344 6.45225 4.6625 6.4125 4.60625 6.35625L2.58125 4.33125C2.47812 4.22812 2.42656 4.09687 2.42656 3.9375C2.42656 3.77812 2.47812 3.64687 2.58125 3.54375C2.68437 3.44062 2.81787 3.38662 2.98175 3.38175C3.146 3.37725 3.27969 3.42656 3.38281 3.52969L4.4375 4.58437V0.5625C4.4375 0.403125 4.4915 0.269438 4.5995 0.161438C4.70712 0.0538126 4.84062 0 5 0C5.15937 0 5.29306 0.0538126 5.40106 0.161438C5.50869 0.269438 5.5625 0.403125 5.5625 0.5625V4.58437L6.61719 3.52969C6.72031 3.42656 6.854 3.37725 7.01825 3.38175C7.18212 3.38662 7.31562 3.44062 7.41875 3.54375C7.52187 3.64687 7.57344 3.77812 7.57344 3.9375C7.57344 4.09687 7.52187 4.22812 7.41875 4.33125L5.39375 6.35625C5.3375 6.4125 5.27656 6.45225 5.21094 6.4755C5.14531 6.49912 5.075 6.51094 5 6.51094ZM1.625 9C1.31562 9 1.05087 8.88994 0.83075 8.66981C0.61025 8.44931 0.5 8.18437 0.5 7.875V6.75C0.5 6.59062 0.553813 6.45694 0.661438 6.34894C0.769438 6.24131 0.903125 6.1875 1.0625 6.1875C1.22187 6.1875 1.35556 6.24131 1.46356 6.34894C1.57119 6.45694 1.625 6.59062 1.625 6.75V7.875H8.375V6.75C8.375 6.59062 8.429 6.45694 8.537 6.34894C8.64462 6.24131 8.77812 6.1875 8.9375 6.1875C9.09687 6.1875 9.23037 6.24131 9.338 6.34894C9.446 6.45694 9.5 6.59062 9.5 6.75V7.875C9.5 8.18437 9.38994 8.44931 9.16981 8.66981C8.94931 8.88994 8.68437 9 8.375 9H1.625Z" fill="#BEC7CC"/>
</svg>
