<svg width="16" height="16" viewBox="0 0 16 16" fill="none" xmlns="http://www.w3.org/2000/svg">
<path d="M1.5 15.5795C1.0875 15.5795 0.73425 15.4325 0.44025 15.1385C0.14675 14.845 0 14.492 0 14.0795V3.57954C0 3.16704 0.14675 2.81379 0.44025 2.51979C0.73425 2.22629 1.0875 2.07954 1.5 2.07954H8.19375L6.69375 3.57954H1.5V14.0795H12V8.86704L13.5 7.36704V14.0795C13.5 14.492 13.3533 14.845 13.0597 15.1385C12.7657 15.4325 12.4125 15.5795 12 15.5795H1.5ZM9.88125 2.51079L10.95 3.56079L6 8.51079V9.57954H7.05L12.0187 4.61079L13.0875 5.66079L8.11875 10.6295C7.98125 10.767 7.822 10.8765 7.641 10.958C7.4595 11.039 7.26875 11.0795 7.06875 11.0795H5.25C5.0375 11.0795 4.8595 11.0078 4.716 10.8643C4.572 10.7203 4.5 10.542 4.5 10.3295V8.51079C4.5 8.31079 4.5375 8.12004 4.6125 7.93854C4.6875 7.75754 4.79375 7.59829 4.93125 7.46079L9.88125 2.51079ZM13.0875 5.66079L9.88125 2.51079L11.7562 0.635791C12.0562 0.335791 12.4158 0.185791 12.8348 0.185791C13.2533 0.185791 13.6062 0.335791 13.8937 0.635791L14.9437 1.70454C15.2312 1.99204 15.375 2.34204 15.375 2.75454C15.375 3.16704 15.2312 3.51704 14.9437 3.80454L13.0875 5.66079Z" fill="#BEC7CC"/>
</svg>
