<svg width="14" height="14" viewBox="0 0 14 14" fill="none" xmlns="http://www.w3.org/2000/svg">
<path d="M4.45016 10.3333C4.56127 10.3333 4.67238 10.297 4.7835 10.2246C4.89461 10.1526 4.96683 10.0666 5.00016 9.96659L5.5335 8.46658H8.46683L9.00016 9.96659C9.0335 10.0666 9.10283 10.1526 9.20816 10.2246C9.31394 10.297 9.42794 10.3333 9.55016 10.3333C9.78349 10.3333 9.95572 10.2555 10.0668 10.0999C10.1779 9.94436 10.1891 9.75547 10.1002 9.53325L7.90016 3.61659C7.8335 3.44992 7.71394 3.30547 7.5415 3.18325C7.3695 3.06103 7.18905 2.99992 7.00016 2.99992C6.81127 2.99992 6.63083 3.06103 6.45883 3.18325C6.28638 3.30547 6.16683 3.44992 6.10016 3.61659L3.90016 9.53325C3.81127 9.75547 3.82238 9.94436 3.9335 10.0999C4.04461 10.2555 4.21683 10.3333 4.45016 10.3333ZM5.90016 7.39992L6.96683 4.36659H7.0335L8.10016 7.39992H5.90016ZM7.00016 13.6666C6.07794 13.6666 5.21127 13.4915 4.40016 13.1413C3.58905 12.7915 2.8835 12.3166 2.2835 11.7166C1.6835 11.1166 1.20861 10.411 0.858829 9.59992C0.508607 8.78881 0.333496 7.92214 0.333496 6.99992C0.333496 6.0777 0.508607 5.21103 0.858829 4.39992C1.20861 3.58881 1.6835 2.88325 2.2835 2.28325C2.8835 1.68325 3.58905 1.20814 4.40016 0.857919C5.21127 0.508141 6.07794 0.333252 7.00016 0.333252C7.92238 0.333252 8.78905 0.508141 9.60016 0.857919C10.4113 1.20814 11.1168 1.68325 11.7168 2.28325C12.3168 2.88325 12.7917 3.58881 13.1415 4.39992C13.4917 5.21103 13.6668 6.0777 13.6668 6.99992C13.6668 7.92214 13.4917 8.78881 13.1415 9.59992C12.7917 10.411 12.3168 11.1166 11.7168 11.7166C11.1168 12.3166 10.4113 12.7915 9.60016 13.1413C8.78905 13.4915 7.92238 13.6666 7.00016 13.6666ZM7.00016 12.3333C8.47794 12.3333 9.73638 11.8139 10.7755 10.7753C11.8142 9.73614 12.3335 8.4777 12.3335 6.99992C12.3335 5.52214 11.8142 4.2637 10.7755 3.22459C9.73638 2.18592 8.47794 1.66659 7.00016 1.66659C5.52238 1.66659 4.26416 2.18592 3.2255 3.22459C2.18638 4.2637 1.66683 5.52214 1.66683 6.99992C1.66683 8.4777 2.18638 9.73614 3.2255 10.7753C4.26416 11.8139 5.52238 12.3333 7.00016 12.3333Z" fill="#EBF3F7"/>
</svg>
